    <svg
              height="15"
              width="15"
              xmlns="http://www.w3.org/2000/svg"
              viewBox="0 0 64 64"
              aria-labelledby="title"
              aria-describedby="desc"
              role="img"
            >
              <path
                data-name="layer2"
                d="M20.6 43c6.3-1.1 5.4-3.2 5.4-4.4v-.8c-1.5-1.3-1.7-3.3-2.3-5.6-1.9 0-2.4-4-2.4-4.6s-.1-3 1.9-3c-1.3-5.1-1-10.1 2.5-10.1 8.4-5.8 19.5-1.3 15.3 10.1 1.9 0 1.9 2.4 1.9 3s-.4 4.6-2.4 4.6c-.6 2.3-.9 4.2-2.4 5.6v.7c0 1.3-.9 3.2 5.4 4.4A9.1 9.1 0 0 1 50 48h8V2H6v46h8a8.9 8.9 0 0 1 6.6-5z"
                fill="#202020"
              ></path>
              <path data-name="layer1" fill="#202020" d="M6 52h52v10H6z"></path>
            </svg>